<?xml version="1.0" standalone="no"?>
<!DOCTYPE svg PUBLIC "-//W3C//DTD SVG 20010904//EN"
 "http://www.w3.org/TR/2001/REC-SVG-20010904/DTD/svg10.dtd">
<svg version="1.0" xmlns="http://www.w3.org/2000/svg"
 width="600.000000pt" height="600.000000pt" viewBox="0 0 600.000000 600.000000"
 preserveAspectRatio="xMidYMid meet">
<metadata>
Created by potrace 1.11, written by Peter Selinger 2001-2013
</metadata>
<g transform="translate(0.000000,600.000000) scale(0.100000,-0.100000)"
fill="#000000" stroke="none">
<path d="M1635 5554 c-196 -41 -332 -118 -463 -260 -83 -90 -152 -218 -182
-338 -20 -78 -20 -118 -20 -1956 0 -1838 0 -1878 20 -1956 30 -120 99 -248
182 -338 107 -117 203 -180 355 -233 l78 -28 1674 -3 1673 -2 39 39 39 39 0
1814 0 1815 -21 27 c-11 14 -30 32 -42 39 -17 9 -378 13 -1652 17 -1546 5
-1633 6 -1684 24 -86 29 -161 76 -226 142 -273 277 -159 719 220 858 21 8 514
12 1670 16 1584 5 1641 6 1671 24 46 27 64 65 64 131 0 53 -3 60 -39 96 l-39
39 -1648 -1 c-907 -1 -1658 -3 -1669 -5z m-217 -1528 c39 -20 107 -47 150 -59
l77 -22 1553 -3 1552 -3 0 -1604 0 -1605 -1527 0 c-1245 0 -1537 3 -1578 14
-187 50 -340 211 -380 403 -12 57 -15 293 -15 1526 l0 1459 48 -35 c26 -19 80
-51 120 -71z"/>
<path d="M1757 3202 c-23 -25 -68 -128 -110 -248 -138 -396 -117 -866 57
-1247 58 -128 72 -133 243 -96 256 55 496 187 755 412 l76 67 225 0 225 0 48
-45 c244 -227 511 -376 777 -434 119 -26 159 -27 180 -3 43 47 129 272 166
432 80 345 39 746 -108 1064 -20 44 -45 89 -55 99 -55 54 -352 -25 -585 -157
-112 -63 -270 -178 -357 -259 l-62 -57 -232 0 -232 0 -75 66 c-240 209 -470
337 -717 399 -120 30 -196 33 -219 7z m187 -118 c214 -54 443 -181 646 -356
l85 -74 3 -92 3 -92 -97 0 c-107 0 -134 -12 -134 -58 0 -51 23 -62 132 -62
l98 0 0 -89 0 -89 -57 -52 c-152 -136 -331 -253 -495 -324 -94 -40 -265 -83
-290 -73 -32 12 -113 259 -143 432 -24 144 -22 385 5 535 19 107 84 320 116
383 17 32 38 34 128 11z m2240 -39 c121 -257 162 -640 100 -949 -32 -160 -114
-386 -140 -386 -24 0 -139 29 -212 54 -165 57 -372 182 -544 331 l-88 76 0 89
0 90 98 0 c110 0 142 13 142 57 0 53 -23 63 -137 63 l-103 0 0 84 0 84 68 62
c135 124 272 217 441 298 103 50 256 100 312 101 35 1 38 -2 63 -54z m-994
-630 l0 -195 -195 0 -195 0 0 195 0 195 195 0 195 0 0 -195z"/>
<path d="M1743 4860 c-94 -57 -80 -202 24 -246 27 -12 259 -14 1370 -14 1254
0 1340 1 1373 18 100 50 106 192 9 244 -32 17 -95 18 -1389 18 -1326 0 -1356
0 -1387 -20z"/>
</g>
</svg>
