<?xml version="1.0" standalone="no"?>
<!DOCTYPE svg PUBLIC "-//W3C//DTD SVG 20010904//EN"
 "http://www.w3.org/TR/2001/REC-SVG-20010904/DTD/svg10.dtd">
<svg version="1.0" xmlns="http://www.w3.org/2000/svg"
 width="280.000000pt" height="280.000000pt" viewBox="0 0 280.000000 280.000000"
 preserveAspectRatio="xMidYMid meet">
<metadata>
Created by potrace 1.11, written by Peter Selinger 2001-2013
</metadata>
<g transform="translate(0.000000,280.000000) scale(0.100000,-0.100000)"
fill="#000000" stroke="none">
<path d="M1557 2506 c-8 -8 -49 -36 -91 -61 -42 -26 -76 -50 -76 -53 0 -4 -11
-20 -25 -36 -14 -16 -25 -34 -25 -40 0 -18 -49 -108 -71 -132 -12 -12 -32 -46
-45 -75 -14 -29 -40 -68 -59 -86 -19 -19 -34 -37 -34 -41 3 -19 -3 -32 -31
-59 -16 -15 -46 -59 -67 -95 -79 -140 -173 -285 -208 -323 -42 -46 -85 -125
-92 -170 -3 -16 -19 -46 -38 -65 -18 -19 -31 -40 -28 -46 2 -7 -7 -14 -21 -18
-40 -10 -68 -46 -61 -77 5 -21 0 -31 -21 -48 -21 -16 -29 -19 -35 -9 -6 9 -10
8 -15 -5 -7 -20 -45 -23 -73 -5 -14 9 -33 8 -79 -2 -56 -12 -64 -16 -94 -61
-18 -26 -40 -50 -49 -52 -18 -5 -67 -71 -100 -133 l-21 -40 30 -34 31 -33 68
25 c37 14 75 28 84 32 12 5 18 0 22 -24 6 -27 -2 -42 -75 -133 -88 -111 -108
-122 -157 -88 -16 12 -31 21 -33 21 -6 0 1 -450 7 -460 10 -15 23 -3 46 41 11
22 30 45 44 51 16 7 27 24 34 54 6 24 15 44 19 44 4 0 16 17 27 38 11 20 30
45 42 55 13 10 23 27 23 38 0 11 5 17 10 14 6 -3 10 1 10 9 0 8 9 20 20 26 15
8 20 21 20 52 0 32 7 49 27 70 14 15 27 39 29 52 2 23 25 76 60 138 8 16 27
29 44 33 21 5 30 13 30 26 0 13 7 19 22 19 11 0 36 11 54 25 23 18 41 24 57
20 17 -5 41 4 82 28 48 28 64 33 87 26 33 -9 33 -8 13 31 l-16 30 33 0 c24 0
43 10 70 36 32 30 41 33 59 24 16 -9 23 -8 32 3 17 21 159 58 238 62 41 2 80
10 107 24 23 11 55 21 72 21 23 0 30 4 30 20 0 14 7 20 23 21 12 0 34 2 49 3
15 1 37 -6 49 -15 29 -22 38 -103 16 -146 -12 -22 -13 -39 -7 -69 11 -48 10
-203 -1 -225 -5 -9 0 -41 11 -78 17 -53 18 -66 7 -89 -17 -37 -13 -200 7 -277
9 -33 16 -86 16 -118 0 -67 17 -105 62 -140 30 -24 33 -24 57 -9 55 34 78 62
73 89 -4 22 -2 24 17 18 16 -5 23 -1 33 19 7 16 19 26 32 26 12 0 35 18 55 41
l34 41 -7 85 c-5 73 -4 87 10 98 19 13 10 39 -11 31 -17 -6 -33 29 -41 94 -3
30 -13 63 -21 72 -9 10 -13 24 -9 33 3 9 1 25 -5 36 -5 11 -12 82 -14 157 -3
75 -7 175 -10 222 l-5 85 37 17 c21 9 52 19 68 21 17 3 48 13 70 23 23 11 68
19 105 21 36 1 111 5 168 9 l103 6 87 82 c48 44 96 86 106 91 10 6 27 26 38
45 16 29 18 40 9 63 -8 21 -17 27 -41 27 -16 0 -30 4 -30 8 0 5 -6 16 -13 26
-13 17 -15 17 -58 -4 -24 -12 -54 -31 -65 -42 -12 -10 -32 -20 -45 -22 -13 -2
-45 -6 -71 -11 -28 -4 -60 -3 -78 3 -18 7 -30 7 -30 1 0 -5 -30 -9 -66 -9 -59
0 -70 -3 -105 -31 -21 -17 -42 -28 -46 -26 -5 3 -26 8 -47 11 -21 4 -50 9 -63
12 -14 4 -33 0 -48 -10 -40 -26 -73 -12 -86 38 -7 22 -13 50 -14 61 -2 11 -6
32 -10 48 -6 23 -4 27 15 27 22 0 22 1 6 19 -13 14 -24 68 -42 198 -13 98 -24
190 -24 204 0 14 -9 34 -19 43 -10 10 -21 34 -24 54 -3 20 -11 69 -17 107 -7
39 -12 84 -11 100 3 48 -19 103 -43 109 -36 10 -64 7 -79 -8z m-198 -464 c5
-9 12 -35 16 -57 4 -22 12 -46 18 -53 8 -10 7 -16 -3 -22 -10 -6 -9 -16 9 -46
13 -21 20 -46 17 -58 -3 -11 1 -27 9 -36 7 -8 13 -19 12 -25 -1 -5 18 -14 42
-20 62 -15 66 -35 7 -35 l-46 0 32 -45 c21 -30 35 -42 42 -35 15 15 46 12 52
-4 3 -7 -2 -30 -10 -51 -23 -55 -21 -137 4 -160 24 -22 27 -65 4 -65 -23 0
-165 -49 -193 -67 -14 -9 -47 -17 -75 -20 -28 -2 -60 -5 -71 -7 -11 -2 -37 -4
-57 -5 -32 -1 -38 -5 -38 -22 0 -18 -2 -19 -15 -9 -24 20 -90 5 -157 -35 -51
-30 -66 -34 -82 -26 -12 6 -43 12 -71 13 -59 4 -67 19 -31 62 14 15 33 51 42
80 23 72 42 106 57 103 7 -1 13 10 15 26 2 16 15 36 33 49 17 13 29 31 29 45
0 15 5 21 14 17 19 -7 24 4 28 64 2 29 7 52 11 52 5 0 5 4 2 10 -3 5 4 17 16
27 56 45 77 72 100 123 26 60 68 117 144 197 53 55 78 64 94 35z"/>
</g>
</svg>
